<?xml version="1.0" encoding="utf-8"?>
<!-- Generator: Adobe Illustrator 15.0.0, SVG Export Plug-In  -->
<!DOCTYPE svg PUBLIC "-//W3C//DTD SVG 1.1//EN" "http://www.w3.org/Graphics/SVG/1.1/DTD/svg11.dtd" [
	<!ENTITY ns_flows "http://ns.adobe.com/Flows/1.0/">
]>
<svg version="1.1"
	 xmlns="http://www.w3.org/2000/svg" xmlns:xlink="http://www.w3.org/1999/xlink" xmlns:a="http://ns.adobe.com/AdobeSVGViewerExtensions/3.0/"
	 x="0px" y="0px" width="276px" height="83px" viewBox="79 50.93 276 83"
	 overflow="visible" enable-background="new 79 50.93 276 83" xml:space="preserve">
<defs>
</defs>
<rect x="154.961" y="74.83" fill="#E4007D" width="15.367" height="58.02"/>
<path fill="#E4007D" d="M79.422,52.697h29.586c6.672,0,11.758,0.511,15.258,1.531c4.703,1.386,8.731,3.847,12.086,7.383
	c3.354,3.537,5.906,7.866,7.656,12.988c1.75,5.123,2.625,11.439,2.625,18.949c0,6.6-0.82,12.287-2.461,17.062
	c-2.005,5.834-4.867,10.555-8.586,14.164c-2.808,2.734-6.599,4.867-11.375,6.398c-3.573,1.131-8.349,1.695-14.328,1.695H79.422
	V52.697z M95.609,66.26v53.102h12.086c4.521,0,7.784-0.255,9.789-0.766c2.625-0.656,4.803-1.768,6.535-3.336
	c1.731-1.567,3.145-4.146,4.238-7.738c1.094-3.591,1.641-8.485,1.641-14.684c0-6.197-0.547-10.955-1.641-14.273
	c-1.094-3.317-2.625-5.906-4.594-7.766s-4.466-3.117-7.492-3.773c-2.261-0.51-6.69-0.766-13.289-0.766H95.609z"/>
<path fill="#E4007D" d="M177.809,74.791h8.531v-4.375c0-4.885,0.52-8.531,1.559-10.938s2.953-4.365,5.742-5.879
	c2.789-1.513,6.316-2.27,10.582-2.27c4.375,0,8.659,0.656,12.852,1.969l-2.078,10.719c-2.443-0.583-4.794-0.875-7.055-0.875
	c-2.224,0-3.819,0.52-4.785,1.559c-0.966,1.039-1.449,3.035-1.449,5.988v4.102h11.484v12.086h-11.484v45.992H186.34V86.877h-8.531
	V74.791z"/>
<path fill="#E4007D" d="M211.409,74.791h8.531v-4.375c0-4.885,0.52-8.531,1.559-10.938s2.953-4.365,5.742-5.879
	c2.789-1.513,6.316-2.27,10.582-2.27c4.375,0,8.659,0.656,12.852,1.969l-2.078,10.719c-2.443-0.583-4.794-0.875-7.055-0.875
	c-2.224,0-3.819,0.52-4.785,1.559c-0.966,1.039-1.449,3.035-1.449,5.988v4.102h11.484v12.086h-11.484v45.992H219.94V86.877h-8.531
	V74.791z"/>
<path fill="#009DE2" d="M84.798,52.697h29.586c6.672,0,11.758,0.511,15.258,1.531c4.703,1.386,8.731,3.847,12.086,7.383
	c3.354,3.537,5.906,7.866,7.656,12.988c1.75,5.123,2.625,11.439,2.625,18.949c0,6.6-0.82,12.287-2.461,17.062
	c-2.005,5.834-4.867,10.555-8.586,14.164c-2.808,2.734-6.599,4.867-11.375,6.398c-3.573,1.131-8.349,1.695-14.328,1.695H84.798
	V52.697z M100.985,66.26v53.102h12.086c4.521,0,7.784-0.255,9.789-0.766c2.625-0.656,4.803-1.768,6.535-3.336
	c1.731-1.567,3.145-4.146,4.238-7.738c1.094-3.591,1.641-8.485,1.641-14.684c0-6.197-0.547-10.955-1.641-14.273
	c-1.094-3.317-2.625-5.906-4.594-7.766s-4.466-3.117-7.492-3.773c-2.261-0.51-6.69-0.766-13.289-0.766H100.985z"/>
<path fill="#009DE2" d="M158.906,66.916V52.697h15.367v14.219H158.906z M158.906,132.869V74.791h15.367v58.078H158.906z"/>
<path fill="#009DE2" d="M181.168,74.791h8.531v-4.375c0-4.885,0.52-8.531,1.559-10.938s2.953-4.365,5.742-5.879
	c2.789-1.513,6.316-2.27,10.582-2.27c4.375,0,8.659,0.656,12.852,1.969l-2.078,10.719c-2.443-0.583-4.794-0.875-7.055-0.875
	c-2.224,0-3.819,0.52-4.785,1.559c-0.966,1.039-1.449,3.035-1.449,5.988v4.102h11.484v12.086h-11.484v45.992H189.7V86.877h-8.531
	V74.791z"/>
<path fill="#009DE2" d="M213.985,74.791h8.531v-4.375c0-4.885,0.52-8.531,1.559-10.938s2.953-4.365,5.742-5.879
	c2.789-1.513,6.316-2.27,10.582-2.27c4.375,0,8.659,0.656,12.852,1.969l-2.078,10.719c-2.443-0.583-4.794-0.875-7.055-0.875
	c-2.224,0-3.819,0.52-4.785,1.559c-0.966,1.039-1.449,3.035-1.449,5.988v4.102h11.484v12.086h-11.484v45.992h-15.367V86.877h-8.531
	V74.791z"/>
<g>
	<defs>
		<rect id="SVGID_1_" width="639.128" height="191.93"/>
	</defs>
	<clipPath id="SVGID_2_">
		<use xlink:href="#SVGID_1_"  overflow="visible"/>
	</clipPath>
	<path clip-path="url(#SVGID_2_)" fill="#E4007D" d="M275.241,133.592c-5.605,0-9.791-0.653-12.796-1.997
		c-2.994-1.338-5.41-3.121-7.18-5.299c-1.764-2.17-2.946-4.494-3.514-6.908c-0.77-3.348-1.144-8.075-1.144-14.46V73.513h15.067
		v31.866c0,5.733,0.205,7.978,0.377,8.851c0.375,1.777,1.251,3.18,2.674,4.262c1.438,1.098,3.517,1.653,6.178,1.653
		c2.691,0,4.686-0.507,5.929-1.507c1.234-0.994,1.954-2.163,2.198-3.573c0.306-1.768,0.461-4.812,0.461-9.045V73.513h15.066v30.962
		c0,6.837-0.311,11.57-0.95,14.471c-0.669,3.041-1.934,5.661-3.76,7.786c-1.817,2.111-4.251,3.806-7.237,5.035
		C283.672,132.978,279.848,133.592,275.241,133.592z M254.524,77.43v27.498c0,6.001,0.351,10.567,1.042,13.572
		c0.429,1.824,1.351,3.618,2.738,5.325c1.38,1.697,3.311,3.108,5.739,4.193c2.458,1.099,6.226,1.655,11.198,1.655
		c4.092,0,7.415-0.514,9.876-1.527c2.411-0.993,4.349-2.328,5.76-3.968c1.398-1.628,2.376-3.672,2.905-6.074
		c0.569-2.585,0.858-7.17,0.858-13.629V77.43h-7.232v28.589c0,4.52-0.17,7.697-0.519,9.714c-0.409,2.357-1.621,4.36-3.602,5.955
		c-1.957,1.575-4.778,2.374-8.385,2.374c-3.539,0-6.417-0.826-8.552-2.455c-2.169-1.652-3.562-3.871-4.137-6.595
		c-0.312-1.587-0.456-4.64-0.456-9.634V77.43H254.524z"/>
	<path clip-path="url(#SVGID_2_)" fill="#E4007D" d="M354.646,132.65h-18.171l-11.174-17.431l-11.208,17.431h-18.064l20.157-30.78
		l-18.365-28.357h17.72l9.972,15.974l9.768-15.974h17.599l-18.419,28.758L354.646,132.65z M338.618,128.733h8.722l-17.558-26.423
		l15.937-24.88h-8.243l-11.928,19.509L313.369,77.43h-8.345l15.836,24.452l-17.585,26.852h8.68l13.352-20.764L338.618,128.733z"/>
</g>
<path fill="#E4007D" d="M252.565,75.471h11.149v29.908c0,4.746,0.138,7.822,0.415,9.229c0.477,2.26,1.613,4.074,3.409,5.443
	c1.795,1.368,4.25,2.053,7.364,2.053c3.164,0,5.549-0.646,7.157-1.94c1.607-1.293,2.574-2.881,2.9-4.765
	c0.326-1.884,0.49-5.01,0.49-9.379V75.471h11.149v29.004c0,6.63-0.301,11.313-0.904,14.05c-0.603,2.737-1.714,5.048-3.334,6.932
	c-1.62,1.883-3.785,3.384-6.498,4.501c-2.712,1.117-6.252,1.676-10.622,1.676c-5.273,0-9.272-0.608-11.997-1.826
	c-2.725-1.218-4.878-2.8-6.46-4.746s-2.625-3.986-3.126-6.121c-0.729-3.164-1.092-7.835-1.092-14.013V75.471z"/>
<path fill="#E4007D" d="M299.652,130.691l18.871-28.815l-17.101-26.405h13.033l11.074,17.741l10.848-17.741h12.92l-17.176,26.819
	l18.871,28.401h-13.447l-12.242-19.098l-12.279,19.098H299.652z"/>
<rect x="158.508" y="52.68" fill="#E4007D" width="15.72" height="14.17"/>
</svg>
